<?xml version="1.0" encoding="UTF-8" standalone="no"?><svg xmlns="http://www.w3.org/2000/svg" xmlns:xlink="http://www.w3.org/1999/xlink" clip-rule="evenodd" stroke-miterlimit="10" viewBox="0 0 157 51"><desc>SVG generated by Keynote</desc><defs></defs><g transform="matrix(1.00, 0.00, -0.00, -1.00, 0.0, 51.0)"><g><clipPath id="clip0x7f90300e4610"><path d="M 2.0 50.0 L 155.0 50.0 L 155.0 2.0 L 2.0 2.0 Z M 1.8 49.8 "></path></clipPath><g clip-path="url(#clip0x7f90300e4610)"><g><clipPath id="clip0x7f90300e4d30"><path d="M 2.0 50.0 L 155.0 50.0 L 155.0 2.0 L 2.0 2.0 Z M 2.0 50.0 "></path></clipPath><g clip-path="url(#clip0x7f90300e4d30)"><g><clipPath id="clip0x7f90300e5470"><path d="M 2.0 2.0 L 155.0 2.0 L 155.0 50.0 L 2.0 50.0 Z M 2.0 2.0 "></path></clipPath><g clip-path="url(#clip0x7f90300e5470)"><path d="M 23.4 19.2 C 23.0 23.5 20.5 26.8 16.1 26.8 C 12.0 26.8 9.2 23.7 8.6 19.2 Z M 2.0 17.0 L 2.0 17.2 C 2.0 25.4 7.9 32.2 16.1 32.2 C 25.3 32.2 30.0 25.0 30.0 16.7 C 30.0 16.1 29.9 15.4 29.9 14.8 L 8.6 14.8 C 9.3 10.1 12.7 7.4 17.0 7.4 C 20.2 7.4 22.5 8.6 24.8 10.9 L 28.7 7.4 C 25.9 4.1 22.2 2.0 16.8 2.0 C 8.5 2.0 2.0 8.1 2.0 17.0 " fill="#2D4F9D"></path><path d="M 33.9 31.6 L 40.5 31.6 L 40.5 27.2 C 42.4 29.9 45.1 32.2 49.6 32.2 C 56.1 32.2 59.9 27.9 59.9 21.2 L 59.9 2.7 L 53.2 2.7 L 53.2 19.1 C 53.2 23.6 51.0 26.2 47.0 26.2 C 43.2 26.2 40.5 23.5 40.5 19.0 L 40.5 2.7 L 33.9 2.7 Z M 33.9 31.6 " fill="#2D4F9D"></path><path d="M 89.0 17.0 L 89.0 17.1 C 89.0 22.2 85.3 26.4 80.1 26.4 C 74.8 26.4 71.4 22.3 71.4 17.2 L 71.4 17.1 C 71.4 12.0 75.1 7.8 80.2 7.8 C 85.6 7.8 89.0 12.0 89.0 17.0 M 64.8 17.0 L 64.8 17.1 C 64.8 25.4 71.4 32.2 80.2 32.2 C 89.1 32.2 95.6 25.5 95.6 17.2 L 95.6 17.1 C 95.6 8.9 89.1 2.0 80.1 2.0 C 71.3 2.0 64.8 8.8 64.8 17.0 " fill="#2D4F9D"></path><path d="M 95.8 31.6 L 102.9 31.6 L 110.7 10.3 L 118.5 31.6 L 125.5 31.6 L 113.6 2.4 L 107.7 2.4 Z M 95.8 31.6 " fill="#2D4F9D"></path><path d="M 149.0 41.5 L 149.0 41.5 C 149.0 43.8 146.9 45.7 143.8 45.7 C 140.6 45.7 138.5 43.8 138.5 41.6 L 138.5 41.5 C 138.5 38.9 140.8 37.1 143.8 37.1 C 146.8 37.1 149.0 38.9 149.0 41.5 M 150.0 28.4 L 150.0 28.5 C 150.0 31.2 147.3 33.0 143.8 33.0 C 140.3 33.0 137.6 31.2 137.6 28.5 L 137.6 28.4 C 137.6 26.0 139.9 24.0 143.8 24.0 C 147.6 24.0 150.0 26.0 150.0 28.4 M 132.6 28.1 L 132.6 28.2 C 132.6 31.8 134.5 34.0 137.9 35.4 C 135.4 36.7 133.6 38.7 133.6 42.0 L 133.6 42.0 C 133.6 46.5 137.9 50.0 143.8 50.0 C 149.7 50.0 154.0 46.6 154.0 42.0 L 154.0 42.0 C 154.0 38.7 152.2 36.7 149.7 35.4 C 152.9 33.9 155.0 31.8 155.0 28.3 L 155.0 28.2 C 155.0 23.0 150.2 19.7 143.8 19.7 C 137.4 19.7 132.6 23.1 132.6 28.1 " fill="#2D4F9D"></path></g></g></g></g></g></g></g></svg>